<svg width="25" height="32" viewBox="0 0 25 32" fill="none" xmlns="http://www.w3.org/2000/svg">
<path d="M20.3687 16.62C20.393 14.1809 21.5852 11.9374 23.5194 10.6592C22.9134 9.73248 22.1139 8.97041 21.1846 8.43371C20.2553 7.89701 19.2219 7.60051 18.1668 7.56787C15.9284 7.307 13.7508 9.00264 12.6073 9.00264C11.4394 9.00264 9.67549 7.59395 7.77773 7.63308C6.54993 7.67599 5.35341 8.05892 4.30457 8.74463C3.25573 9.43034 2.39029 10.3955 1.79247 11.5461C-0.798705 16.3591 1.13555 23.4156 3.61724 27.3026C4.85809 29.1939 6.29358 31.3199 8.20351 31.2417C10.0526 31.1634 10.7582 29.9765 12.9844 29.9765C15.2106 29.9765 15.8554 31.2417 17.7896 31.2025C19.7847 31.1634 21.0377 29.2852 22.2421 27.3678C23.1301 26.0113 23.8236 24.5113 24.2737 22.933C23.1166 22.408 22.1293 21.5294 21.4349 20.4067C20.7405 19.2841 20.3696 17.9671 20.3687 16.62ZM16.7069 5.01136C17.7947 3.61426 18.3315 1.81742 18.2033 0.00268555C16.5366 0.198337 15.0038 1.04616 13.909 2.38963C13.37 3.04648 12.9573 3.81084 12.6942 4.63897C12.4312 5.4671 12.3231 6.34272 12.3762 7.21569C13.2067 7.2246 14.0282 7.03076 14.7786 6.64885C15.5289 6.26694 16.1883 5.70697 16.7069 5.01136Z" fill="white"/>
</svg>
